<svg id="Layer_1" data-name="Layer 1" xmlns="http://www.w3.org/2000/svg" viewBox="0 0 404.03 131.09"><defs><style>.cls-1{fill:#4f4591;}.cls-2{fill:#2e3690;}.cls-3{fill:#00b1b2;}.cls-4{fill:#14a74a;}.cls-5{fill:none;stroke:#231f20;stroke-miterlimit:10;stroke-width:3px;}.cls-6{font-size:52.2px;fill:#fff;font-family:ComicSansMS-Bold, Comic Sans MS;font-weight:700;}</style></defs><rect class="cls-1" x="1.5" y="1.5" width="387.11" height="128.09" rx="12"/><circle class="cls-2" cx="264.66" cy="20.64" r="15.68"/><circle class="cls-2" cx="235.52" cy="16.08" r="11.49"/><circle class="cls-2" cx="214.29" cy="24.75" r="8.43"/><circle class="cls-2" cx="200.15" cy="38.27" r="7.2"/><circle class="cls-2" cx="187.54" cy="51.85" r="6.14"/><circle class="cls-2" cx="174.53" cy="69.75" r="10.03"/><circle class="cls-2" cx="158.75" cy="90.27" r="12.44"/><circle class="cls-2" cx="130.44" cy="108.92" r="16.54"/><path class="cls-2" d="M208.7,232.13a15.63,15.63,0,0,0-9.26,3,4.37,4.37,0,0,1-.27.64,2.42,2.42,0,0,1-.1.36,8.76,8.76,0,0,0-.32,1.11c0,.14-.06.29-.08.44-.1.91-.21,1.81-.34,2.72a3.45,3.45,0,0,1-.12.46,3.31,3.31,0,0,1,.06.56c0,2.24-.07,4.46-.09,6.67a5.27,5.27,0,0,1,.14.81,37.3,37.3,0,0,1,.1,5.18,4.65,4.65,0,0,1-.35,1.58c0,1.13.06,2.25.1,3.37,0,.12,0,.22,0,.33a15.68,15.68,0,1,0,10.55-27.27Z" transform="translate(-198.05 -228.45)"/><circle class="cls-2" cx="37.82" cy="29.32" r="11.49"/><circle class="cls-2" cx="53.09" cy="46.36" r="8.43"/><circle class="cls-2" cx="60.29" cy="65.9" r="7.2"/><circle class="cls-2" cx="63.96" cy="83.12" r="6.14"/><circle class="cls-2" cx="74.7" cy="99.97" r="10.03"/><circle class="cls-2" cx="97.14" cy="112.41" r="12.44"/><path class="cls-2" d="M586.59,350.8c0-2.89,0-5.79.06-8.69-.1-3.4-.19-6.79-.06-10.18a3.4,3.4,0,0,1,.07-.46,16.55,16.55,0,1,0,0,20A3.86,3.86,0,0,1,586.59,350.8Z" transform="translate(-198.05 -228.45)"/><circle class="cls-2" cx="290.25" cy="36" r="11.49"/><circle class="cls-2" cx="300.51" cy="57.82" r="8.43"/><circle class="cls-2" cx="301.74" cy="75.64" r="7.2"/><circle class="cls-2" cx="308.94" cy="89.16" r="6.14"/><circle class="cls-2" cx="321.17" cy="103.01" r="10.03"/><circle class="cls-2" cx="345.06" cy="111.44" r="12.44"/><path class="cls-3" d="M305.28,230c-.38,13.2,16.58,19.39,15.85,27.65a54.11,54.11,0,0,1-4.51,16.16S334,267.23,335.15,260s-6.81-17.4-7.94-23.72-1-6.33-1-6.33" transform="translate(-198.05 -228.45)"/><path class="cls-3" d="M458.89,357.82c.38-11.4-16.6-16.75-15.88-23.87a42,42,0,0,1,4.52-14s-17.42,5.65-18.56,11.88,6.82,15,7.95,20.49,1,5.46,1,5.46" transform="translate(-198.05 -228.45)"/><path class="cls-4" d="M199.05,349.05c12.39,0,18.28-11.31,26.64-12.57a40.7,40.7,0,0,1,13.81,0s-7.93-11.73-13.81-12.14-16.94,7.12-21.79,6.28l-4.85-.84" transform="translate(-198.05 -228.45)"/><path class="cls-4" d="M587,243.78c-12.39,0-18.28,11.31-26.64,12.57a40.7,40.7,0,0,1-13.81,0s7.93,11.72,13.81,12.14,16.94-7.12,21.79-6.28l4.85.84" transform="translate(-198.05 -228.45)"/><rect class="cls-5" x="1.5" y="1.5" width="387.11" height="128.09" rx="12"/><text class="cls-6" transform="translate(15.41 85.67)">Haley Magnani</text></svg>